<?xml version="1.0" encoding="UTF-8"?>
<svg width="496px" height="964px" viewBox="0 0 496 964" version="1.1" xmlns="http://www.w3.org/2000/svg" xmlns:xlink="http://www.w3.org/1999/xlink">
    <!-- Generator: Sketch 52.5 (67469) - http://www.bohemiancoding.com/sketch -->
    <title>Fill 1</title>
    <desc>Created with Sketch.</desc>
    <g id="Page-1" stroke="none" stroke-width="1" fill="none" fill-rule="evenodd">
        <g id="Menu" transform="translate(-915.000000, -30.000000)" fill="#3C7865">
            <path d="M1241.26565,30 L1241.44846,30.2186855 L1080.9367,30.2186855 L915.868414,30.2186855 L1043.7482,182.235884 L915.360995,182.235884 L1082.37695,350.497317 L1080.9367,350.497317 L915.870122,350.497317 L1043.7499,502.517932 L915.360995,502.517932 L1082.37524,670.777656 L1080.9367,670.777656 L1080.9367,670.779365 L915.870122,670.779365 L1043.7499,822.796563 L915.360995,822.796563 L1084.85083,993.548961 L1084.85083,832.514402 L1243.66265,994 L1243.66265,825.504505 L1410.24465,993.331984 L1410.24465,676.779549 L1408.53788,676.779549 L1408.53788,989.182084 L1244.85859,824.288067 L1372.81184,824.288067 L1244.93547,672.26916 L1409.39041,672.26916 L1409.39041,672.19057 L1410.24465,673.051644 L1410.24465,356.495793 L1408.53788,356.495793 L1408.53788,668.903453 L1244.85859,504.006019 L1372.81184,504.006019 L1244.93547,351.98882 L1409.39041,351.98882 L1409.39041,351.91023 L1410.24465,352.771305 L1410.24465,36.2171614 L1408.53788,36.2171614 L1408.53788,348.623113 L1244.85859,183.725679 L1372.81184,183.725679 L1244.93547,31.7084807 L1409.39041,31.7084807 L1409.39041,30 L1241.26565,30 Z M919.463057,183.944364 L1047.41801,183.944364 L919.539939,31.9271663 L1083.99659,31.9271663 L1241.95417,31.9271663 L1241.95417,182.018907 L1240.75653,182.018907 L1241.95417,183.223386 L1241.95417,349.265502 L1084.85083,189.519137 L1084.85083,183.942656 L1234.24551,183.942656 L1084.59626,35.8276278 L1083.14234,34.389087 L1083.14234,182.234175 L1075.29188,182.234175 L1083.14234,190.216197 L1083.14234,348.843507 L919.463057,183.944364 Z M1243.66265,32.8497459 L1369.14202,182.018907 L1243.66265,182.018907 L1243.66265,32.8497459 Z M1084.85083,38.4826068 L1100.86271,54.3321825 L1230.09048,182.234175 L1084.85083,182.234175 L1084.85083,38.4826068 Z M1079.36831,183.942656 L1083.14234,183.942656 L1083.14234,187.781612 L1079.36831,183.942656 Z M1243.66265,184.943826 L1407.77248,350.28034 L1243.66265,350.28034 L1243.66265,184.943826 Z M1084.85083,191.953722 L1240.76849,350.497317 L1084.85083,350.497317 L1084.85083,191.953722 Z M1084.85083,352.205797 L1241.95417,352.205797 L1241.95417,502.297538 L1240.75653,502.297538 L1241.95417,503.505434 L1241.95417,669.545842 L1084.85083,509.799477 L1084.85083,504.226413 L1234.24551,504.226413 L1232.76938,502.763953 L1173.23224,443.836744 L1084.59626,356.107967 L1083.14234,354.667718 L1083.14234,502.517932 L1075.29188,502.517932 L1083.14234,510.498245 L1083.14234,669.122139 L919.463057,504.226413 L1047.41801,504.226413 L919.539939,352.207506 L1083.99659,352.207506 L1083.99659,352.205797 L1084.07347,352.205797 L1084.85083,352.988282 L1084.85083,352.205797 Z M1243.66265,353.439321 L1243.66265,353.128377 L1369.14202,502.297538 L1243.66265,502.297538 L1243.66265,353.439321 Z M1084.85083,358.762947 L1172.01922,445.039515 L1230.09048,502.517932 L1084.85083,502.517932 L1084.85083,358.762947 Z M1079.36831,504.226413 L1083.14234,504.226413 L1083.14234,508.061952 L1079.36831,504.226413 Z M1243.66265,505.225874 L1407.77248,670.560679 L1243.66265,670.560679 L1243.66265,505.225874 Z M1084.85083,512.23577 L1240.76678,670.777656 L1084.85083,670.777656 L1084.85083,512.23577 Z M1084.85083,672.486137 L1241.95417,672.486137 L1241.95417,822.579586 L1240.75653,822.579586 L1241.95417,823.784065 L1241.95417,989.826182 L1084.85083,830.079817 L1084.85083,824.505044 L1234.24551,824.505044 L1232.76938,823.042584 L1162.20571,753.203309 L1084.59626,676.390016 L1083.14234,674.949766 L1083.14234,822.796563 L1075.29188,822.796563 L1083.14234,830.778585 L1083.14234,989.402478 L919.463057,824.505044 L1047.41801,824.505044 L919.539939,672.487846 L1083.99659,672.487846 L1083.99659,672.486137 L1084.07176,672.486137 L1084.85083,673.27033 L1084.85083,672.486137 Z M1243.66265,673.721369 L1243.66265,673.408717 L1369.14202,822.579586 L1243.66265,822.579586 L1243.66265,673.721369 Z M1084.85083,679.043286 L1160.99439,754.407788 L1230.09048,822.796563 L1084.85083,822.796563 L1084.85083,679.043286 Z M1079.36831,824.505044 L1083.14234,824.505044 L1083.14234,828.344 L1079.36831,824.505044 Z" id="Fill-1"></path>
        </g>
    </g>
</svg>