<?xml version="1.0" encoding="UTF-8"?>
<svg width="494px" height="965px" viewBox="0 0 494 965" version="1.1" xmlns="http://www.w3.org/2000/svg" xmlns:xlink="http://www.w3.org/1999/xlink">
    <!-- Generator: Sketch 52.5 (67469) - http://www.bohemiancoding.com/sketch -->
    <title>Fill 1</title>
    <desc>Created with Sketch.</desc>
    <g id="Page-1" stroke="none" stroke-width="1" fill="none" fill-rule="evenodd">
        <g id="Home" transform="translate(0.000000, -1403.000000)" fill="#C9D8CE">
            <path d="M324.609838,1403.21232 L324.792645,1403.43101 L164.280881,1403.43101 L-0.787401683,1403.43101 L127.092381,1555.4482 L-1.29482046,1555.4482 L165.72113,1723.70964 L164.280881,1723.70964 L-0.785693203,1723.70964 L127.094089,1875.73025 L-1.29482046,1875.73025 L165.719422,2043.98998 L164.280881,2043.98998 L164.280881,2043.99168 L-0.785693203,2043.99168 L127.094089,2196.00888 L-1.29482046,2196.00888 L168.19501,2366.76128 L168.19501,2205.72672 L327.006836,2367.21232 L327.006836,2198.71682 L493.588833,2366.5443 L493.588833,2049.99187 L491.88206,2049.99187 L491.88206,2362.3944 L328.202773,2197.50039 L456.15602,2197.50039 L328.279654,2045.48148 L492.734592,2045.48148 L492.734592,2045.40289 L493.588833,2046.26396 L493.588833,1729.70811 L491.88206,1729.70811 L491.88206,2042.11577 L328.202773,1877.21834 L456.15602,1877.21834 L328.279654,1725.20114 L492.734592,1725.20114 L492.734592,1725.12255 L493.588833,1725.98362 L493.588833,1409.42948 L491.88206,1409.42948 L491.88206,1721.83543 L328.202773,1556.938 L456.15602,1556.938 L328.279654,1404.9208 L492.734592,1404.9208 L492.734592,1403.21232 L324.609838,1403.21232 Z M2.80724177,1557.15668 L130.762197,1557.15668 L2.8841234,1405.13949 L167.34077,1405.13949 L325.298356,1405.13949 L325.298356,1555.23123 L324.100711,1555.23123 L325.298356,1556.43571 L325.298356,1722.47782 L168.19501,1562.73146 L168.19501,1557.15498 L317.58969,1557.15498 L167.940447,1409.03995 L166.486529,1407.60141 L166.486529,1555.44649 L158.636061,1555.44649 L166.486529,1563.42852 L166.486529,1722.05583 L2.80724177,1557.15668 Z M327.006836,1406.06207 L452.486203,1555.23123 L327.006836,1555.23123 L327.006836,1406.06207 Z M168.19501,1411.69493 L184.206892,1427.5445 L313.434665,1555.44649 L168.19501,1555.44649 L168.19501,1411.69493 Z M162.712496,1557.15498 L166.486529,1557.15498 L166.486529,1560.99393 L162.712496,1557.15498 Z M327.006836,1558.15615 L491.116661,1723.49266 L327.006836,1723.49266 L327.006836,1558.15615 Z M168.19501,1565.16604 L324.11267,1723.70964 L168.19501,1723.70964 L168.19501,1565.16604 Z M168.19501,1725.41812 L325.298356,1725.41812 L325.298356,1875.50986 L324.100711,1875.50986 L325.298356,1876.71775 L325.298356,2042.75816 L168.19501,1883.0118 L168.19501,1877.43873 L317.58969,1877.43873 L316.113563,1875.97627 L256.576427,1817.04906 L167.940447,1729.32029 L166.486529,1727.88004 L166.486529,1875.73025 L158.636061,1875.73025 L166.486529,1883.71057 L166.486529,2042.33446 L2.80724177,1877.43873 L130.762197,1877.43873 L2.8841234,1725.41983 L167.34077,1725.41983 L167.34077,1725.41812 L167.417651,1725.41812 L168.19501,1726.2006 L168.19501,1725.41812 Z M327.006836,1726.65164 L327.006836,1726.3407 L452.486203,1875.50986 L327.006836,1875.50986 L327.006836,1726.65164 Z M168.19501,1731.97527 L255.363405,1818.25183 L313.434665,1875.73025 L168.19501,1875.73025 L168.19501,1731.97527 Z M162.712496,1877.43873 L166.486529,1877.43873 L166.486529,1881.27427 L162.712496,1877.43873 Z M327.006836,1878.43819 L491.116661,2043.773 L327.006836,2043.773 L327.006836,1878.43819 Z M168.19501,1885.44809 L324.110961,2043.98998 L168.19501,2043.98998 L168.19501,1885.44809 Z M168.19501,2045.69846 L325.298356,2045.69846 L325.298356,2195.79191 L324.100711,2195.79191 L325.298356,2196.99638 L325.298356,2363.0385 L168.19501,2203.29214 L168.19501,2197.71736 L317.58969,2197.71736 L316.113563,2196.2549 L245.549892,2126.41563 L167.940447,2049.60234 L166.486529,2048.16209 L166.486529,2196.00888 L158.636061,2196.00888 L166.486529,2203.9909 L166.486529,2362.6148 L2.80724177,2197.71736 L130.762197,2197.71736 L2.8841234,2045.70017 L167.34077,2045.70017 L167.34077,2045.69846 L167.415943,2045.69846 L168.19501,2046.48265 L168.19501,2045.69846 Z M327.006836,2046.93369 L327.006836,2046.62104 L452.486203,2195.79191 L327.006836,2195.79191 L327.006836,2046.93369 Z M168.19501,2052.25561 L244.338579,2127.62011 L313.434665,2196.00888 L168.19501,2196.00888 L168.19501,2052.25561 Z M162.712496,2197.71736 L166.486529,2197.71736 L166.486529,2201.55632 L162.712496,2197.71736 Z" id="Fill-1"></path>
        </g>
    </g>
</svg>