<svg width="115" height="99" viewBox="0 0 115 99" fill="none" xmlns="http://www.w3.org/2000/svg">
<path d="M107.322 11.2743H36.1854V15.1628H107.322C108.93 15.1628 110.239 16.4711 110.239 18.0793V91.382C110.239 92.9902 108.93 94.2984 107.322 94.2984H14.482C8.85348 94.2984 4.27441 89.7194 4.27441 84.0909V82.3996C7.85775 78.7214 12.3172 77.6443 17.544 79.2014C21.9189 80.5051 25.2254 83.205 25.2585 83.232C26.5016 84.259 28.4423 83.3435 28.4423 81.7339V14.0806C28.4423 6.31654 22.1287 0 14.3687 0C6.60878 0 0.294922 6.31654 0.294922 14.0806L0.385818 84.0909C0.385818 91.8634 6.7094 98.187 14.482 98.187H107.322C111.074 98.187 114.127 95.1342 114.127 91.382V18.0793C114.127 14.327 111.074 11.2743 107.322 11.2743ZM4.18352 14.0806C4.18352 8.46085 8.75261 3.88859 14.3685 3.88859C19.9843 3.88859 24.5534 8.46085 24.5534 14.0806V78.0733C18.3015 74.4207 10.4607 73.0402 4.18352 77.3881V14.0806Z" fill="#83A89A"/>
<path d="M100.435 79.6533L98.5108 66.8061C98.4598 66.4654 98.3191 66.1443 98.103 65.8758C98.103 65.8758 63.468 22.8108 63.4593 22.8003C60.5156 19.2202 55.0536 18.2507 51.3706 21.3115C47.7943 24.2838 47.3975 29.8299 50.4857 33.6743L85.0223 76.6654C85.2405 76.9374 85.5283 77.1454 85.8549 77.2679L97.8289 81.7616C99.1921 82.2737 100.65 81.0892 100.435 79.6533ZM53.5174 31.2388C51.7498 29.0384 51.9017 25.9265 53.8562 24.3018C55.8816 22.6185 58.862 23.3321 60.4454 25.257C60.4639 25.2798 60.7762 25.6682 61.3235 26.3487L54.3357 32.2574L53.5174 31.2388ZM85.0111 70.4427L56.7716 35.2898L58.722 33.6405L81.8358 62.1728L84.8573 59.7252L61.6922 31.1295L63.7614 29.3798C70.8953 38.2497 87.4218 58.799 91.9799 64.4666L85.0111 70.4427ZM87.72 73.8143L87.4478 73.4755L94.4181 67.4983L94.7433 67.9024L96.0994 76.9592L87.72 73.8143Z" fill="#83A89A"/>
<path d="M67.3732 81.8855H49.6062C48.5324 81.8855 47.6619 81.015 47.6619 79.9412V59.6364C47.6619 57.8844 49.9114 57.0333 51.0695 58.3561L68.8365 78.6609C69.9153 79.8936 69.0066 81.8855 67.3732 81.8855ZM51.5505 77.9969H63.0884L51.5505 64.8112V77.9969Z" fill="#83A89A"/>
<path d="M88.3142 86.6476L41.1001 32.6894C39.9428 31.3673 37.6925 32.2172 37.6925 33.9697V87.9276C37.6925 89.0014 38.5631 89.8719 39.6368 89.8719H86.8509C88.4841 89.8722 89.3936 87.8807 88.3142 86.6476ZM41.5813 85.9836V79.6892H44.9372V75.8006H41.5813V69.9652H44.9372V66.0766H41.5813V60.2413H44.9372V56.3527H41.5813V50.5174H44.9372V46.6288H41.5813V39.1447L82.5664 85.9838H41.5813V85.9836Z" fill="#83A89A"/>
</svg>
