<svg width="176" height="109" viewBox="0 0 176 109" fill="none" xmlns="http://www.w3.org/2000/svg">
<path fill-rule="evenodd" clip-rule="evenodd" d="M55.16 0L75.6614 24.773H55.1134L81.8196 52.1223V32.2148V25.8779L107.281 52.1934V26.4894V24.773V0H55.16ZM81.8196 0.874131L105.575 24.773H81.8196V0.874131Z" fill="#0B5640"/>
<path fill-rule="evenodd" clip-rule="evenodd" d="M14.2598 92.5354H4.3772V76.7107H14.2598C15.8235 76.7107 17.1251 77.1005 18.1633 77.8801C19.201 78.6602 19.9753 79.639 20.4871 80.8159C20.9984 81.9939 21.2544 83.2628 21.2544 84.6233C21.2544 85.9842 20.9984 87.2534 20.4871 88.4303C19.9753 89.6079 19.201 90.5859 18.1633 91.3664C17.1251 92.1456 15.8235 92.5354 14.2598 92.5354ZM22.7888 91.1136C23.9014 90.0129 24.6839 88.7743 25.1351 87.3982C25.5866 86.0222 25.6991 84.6081 25.4737 83.1552C25.2484 81.7035 24.6908 80.3802 23.804 79.1875C22.9164 77.9951 21.6901 77.0171 20.1263 76.2517C18.5617 75.488 16.6666 75.1056 14.4401 75.1056H0V107.214H4.3772V94.0951H14.4401C14.8615 94.0951 15.2824 94.0796 15.7037 94.0493L21.2544 107.783H26.2215L19.7389 93.0942C20.9403 92.5964 21.9568 91.9362 22.7888 91.1136Z" fill="#0B5640"/>
<path fill-rule="evenodd" clip-rule="evenodd" d="M31.5881 107.214H54.1061V105.654H35.9653V89.0495H48.8715V87.4902H35.9653V76.7106H54.1061V75.1055H31.5881V107.214Z" fill="#0B5640"/>
<path fill-rule="evenodd" clip-rule="evenodd" d="M70.216 91.5265H80.6401V103.636C79.5569 104.676 78.3682 105.471 77.0752 106.021C75.7814 106.572 74.3825 106.847 72.878 106.847C70.742 106.847 68.8771 106.397 67.2827 105.494C65.6878 104.592 64.3641 103.415 63.3117 101.962C62.258 100.51 61.4615 98.8427 60.92 96.9619C60.3784 95.0815 60.1076 93.1626 60.1076 91.2058C60.1076 89.2489 60.3784 87.3374 60.92 85.4718C61.4615 83.6069 62.258 81.9396 63.3117 80.472C64.3641 79.0043 65.6878 77.8193 67.2827 76.917C68.8771 76.0154 70.742 75.5643 72.878 75.5643C74.9241 75.5643 76.8871 76.1451 78.7675 77.3072C80.6466 78.4697 82.1891 80.2883 83.3925 82.7655L84.7465 82.2612C84.1444 80.8847 83.4077 79.685 82.5352 78.6599C81.6627 77.6361 80.6851 76.7951 79.6023 76.1373C78.5192 75.48 77.3681 74.9904 76.15 74.6693C74.9314 74.3482 73.6908 74.1878 72.4273 74.1878C69.6588 74.1575 67.2299 74.6235 65.1389 75.5868C63.0478 76.5505 61.3032 77.8275 59.9047 79.4171C58.5058 81.0074 57.4599 82.8269 56.7682 84.8754C56.0761 86.9247 55.7226 89.0116 55.7079 91.1366C55.6924 93.262 56.0306 95.3416 56.7232 97.375C57.4149 99.4092 58.4526 101.228 59.8368 102.833C61.2202 104.438 62.9505 105.739 65.0264 106.732C67.1023 107.726 69.5234 108.223 72.2919 108.223C73.7955 108.223 75.2624 108.001 76.6916 107.558C78.1199 107.115 79.4367 106.45 80.6401 105.562L84.9269 107.26V89.921H70.216V91.5265Z" fill="#0B5640"/>
<path fill-rule="evenodd" clip-rule="evenodd" d="M113.221 101.113L94.268 75.1055H89.9358L92.4179 78.5456V107.214H93.9522V80.7012L113.221 107.122V107.214H114.755V75.1055H113.221V101.113Z" fill="#0B5640"/>
<path fill-rule="evenodd" clip-rule="evenodd" d="M121.524 107.214H144.042V105.654H125.901V89.0495H138.807V87.4902H125.901V76.7106H144.042V75.1055H121.524V107.214Z" fill="#0B5640"/>
<path fill-rule="evenodd" clip-rule="evenodd" d="M163.604 92.5354H153.722V76.7107H163.604C165.168 76.7107 166.47 77.1005 167.508 77.8801C168.546 78.6602 169.32 79.639 169.832 80.8159C170.343 81.9939 170.599 83.2628 170.599 84.6233C170.599 85.9842 170.343 87.2534 169.832 88.4303C169.32 89.6079 168.546 90.5859 167.508 91.3664C166.47 92.1456 165.168 92.5354 163.604 92.5354ZM169.084 93.0942C170.285 92.5964 171.301 91.9362 172.133 91.1136C173.246 90.0129 174.028 88.7743 174.48 87.3982C174.931 86.0222 175.044 84.6081 174.818 83.1552C174.592 81.7035 174.036 80.3802 173.149 79.1875C172.261 77.9951 171.035 77.0171 169.471 76.2517C167.906 75.488 166.011 75.1056 163.785 75.1056H149.345V107.214H153.722V94.0951H163.785C164.206 94.0951 164.627 94.0796 165.048 94.0493L170.599 107.783H175.565L169.084 93.0942Z" fill="#0B5640"/>
</svg>
