<svg width="176" height="109" viewBox="0 0 176 109" fill="none" xmlns="http://www.w3.org/2000/svg">
<path fill-rule="evenodd" clip-rule="evenodd" d="M55.16 0L75.6614 24.773H55.1134L81.8196 52.1223V32.2148V25.8779L107.281 52.1934V26.4894V24.773V0H55.16ZM81.8196 0.874131L105.575 24.773H81.8196V0.874131Z" fill="white"/>
<path fill-rule="evenodd" clip-rule="evenodd" d="M14.2598 92.5353H4.3772V76.7106H14.2598C15.8235 76.7106 17.1251 77.1004 18.1633 77.88C19.201 78.6601 19.9753 79.6389 20.4871 80.8158C20.9984 81.9938 21.2544 83.2627 21.2544 84.6231C21.2544 85.984 20.9984 87.2533 20.4871 88.4301C19.9753 89.6078 19.201 90.5858 18.1633 91.3663C17.1251 92.1455 15.8235 92.5353 14.2598 92.5353M22.7888 91.1135C23.9014 90.0127 24.6839 88.7741 25.1351 87.3981C25.5866 86.0221 25.6991 84.608 25.4737 83.1551C25.2484 81.7034 24.6908 80.3801 23.804 79.1873C22.9164 77.995 21.6901 77.0169 20.1263 76.2516C18.5617 75.4879 16.6666 75.1055 14.4401 75.1055H0V107.214H4.3772V94.095H14.4401C14.8615 94.095 15.2824 94.0795 15.7037 94.0492L21.2544 107.783H26.2215L19.7389 93.0941C20.9403 92.5963 21.9568 91.9361 22.7888 91.1135" fill="white"/>
<path fill-rule="evenodd" clip-rule="evenodd" d="M31.5881 107.214H54.1061V105.654H35.9653V89.0494H48.8716V87.4902H35.9653V76.7106H54.1061V75.1055H31.5881V107.214Z" fill="white"/>
<path fill-rule="evenodd" clip-rule="evenodd" d="M70.216 91.5265H80.6401V103.636C79.5569 104.676 78.3682 105.471 77.0752 106.021C75.7814 106.572 74.3825 106.847 72.878 106.847C70.742 106.847 68.8771 106.397 67.2827 105.494C65.6878 104.592 64.3641 103.415 63.3117 101.962C62.258 100.51 61.4615 98.8427 60.92 96.962C60.3784 95.0816 60.1076 93.1627 60.1076 91.2059C60.1076 89.249 60.3784 87.3375 60.92 85.4718C61.4615 83.607 62.258 81.9397 63.3117 80.4721C64.3641 79.0044 65.6878 77.8194 67.2827 76.9171C68.8771 76.0155 70.742 75.5643 72.878 75.5643C74.9241 75.5643 76.8871 76.1452 78.7675 77.3073C80.6466 78.4698 82.1891 80.2884 83.3925 82.7656L84.7465 82.2612C84.1444 80.8848 83.4077 79.6851 82.5352 78.66C81.6627 77.6362 80.6851 76.7952 79.6023 76.1374C78.5192 75.4801 77.3681 74.9905 76.15 74.6694C74.9314 74.3483 73.6908 74.1879 72.4273 74.1879C69.6588 74.1576 67.2299 74.6235 65.1389 75.5868C63.0478 76.5506 61.3032 77.8276 59.9047 79.4172C58.5058 81.0075 57.4599 82.827 56.7682 84.8755C56.0761 86.9248 55.7226 89.0117 55.7079 91.1367C55.6924 93.2621 56.0306 95.3417 56.7232 97.3751C57.4149 99.4093 58.4526 101.228 59.8368 102.833C61.2202 104.438 62.9505 105.739 65.0264 106.732C67.1023 107.726 69.5234 108.223 72.2919 108.223C73.7955 108.223 75.2624 108.001 76.6916 107.558C78.1199 107.115 79.4367 106.45 80.6401 105.563L84.9269 107.26V89.921H70.216V91.5265Z" fill="white"/>
<path fill-rule="evenodd" clip-rule="evenodd" d="M113.221 101.113L94.268 75.1055H89.9358L92.4179 78.5455V107.214H93.9522V80.7012L113.221 107.122V107.214H114.755V75.1055H113.221V101.113Z" fill="white"/>
<path fill-rule="evenodd" clip-rule="evenodd" d="M121.524 107.214H144.042V105.654H125.901V89.0494H138.807V87.4902H125.901V76.7106H144.042V75.1055H121.524V107.214Z" fill="white"/>
<path fill-rule="evenodd" clip-rule="evenodd" d="M163.604 92.5353H153.722V76.7106H163.604C165.168 76.7106 166.47 77.1004 167.508 77.88C168.546 78.6601 169.32 79.6389 169.832 80.8158C170.343 81.9938 170.599 83.2627 170.599 84.6231C170.599 85.984 170.343 87.2533 169.832 88.4301C169.32 89.6078 168.546 90.5858 167.508 91.3663C166.47 92.1455 165.168 92.5353 163.604 92.5353V92.5353ZM169.084 93.0941C170.285 92.5963 171.301 91.9361 172.133 91.1135C173.246 90.0127 174.028 88.7741 174.48 87.3981C174.931 86.0221 175.044 84.608 174.818 83.1551C174.592 81.7034 174.036 80.3801 173.149 79.1873C172.261 77.995 171.035 77.0169 169.471 76.2516C167.906 75.4879 166.011 75.1055 163.785 75.1055H149.345V107.214H153.722V94.095H163.785C164.206 94.095 164.627 94.0795 165.048 94.0492L170.599 107.783H175.565L169.084 93.0941Z" fill="white"/>
</svg>
