<svg width="119" height="96" viewBox="0 0 119 96" fill="none" xmlns="http://www.w3.org/2000/svg">
<path d="M99.7076 90.3916H19.8458V38.6252H14.6576V92.9783C14.6576 94.4064 15.819 95.5642 17.2517 95.5642H102.302C103.734 95.5642 104.896 94.4064 104.896 92.9783V38.6252H99.7076V90.3916Z" fill="#83A89A"/>
<path d="M60.5556 0.361588C59.7714 -0.0728405 58.8183 -0.0728405 58.0349 0.361588L0 32.524L2.52074 37.0442L59.2949 5.58064L116.069 37.0442L118.59 32.524L60.5556 0.361588Z" fill="#83A89A"/>
<path d="M81.4353 56.9171H75.3584V50.8587C75.3584 49.4306 74.197 48.2728 72.7643 48.2728H55.4208H38.0787C36.646 48.2728 35.4846 49.4306 35.4846 50.8587V56.9163V59.5022V68.1457V70.7316V76.7892C35.4846 78.2173 36.646 79.3751 38.0787 79.3751H55.4215H70.1702H72.7643H81.4353C82.868 79.3751 84.0295 78.2173 84.0295 76.7892V68.1457V65.5598V59.5022C84.0295 58.0741 82.868 56.9171 81.4353 56.9171ZM70.1695 56.9171H64.0918H58.0149V53.4446H70.1695V56.9171ZM61.4984 65.5606H55.4215H49.3446V62.0888H55.4215H61.4984V65.5606ZM40.6729 65.5606V62.0888H44.1564V65.5606H40.6729ZM40.6729 53.4446H52.8274V56.9163H46.7505H40.6729V53.4446ZM40.6729 70.7323H46.7505H52.8274V74.2041H40.6729V70.7323ZM58.0149 74.2041V70.7323H64.0918H70.1695V74.2041H58.0149ZM75.3577 74.2041V70.7323H78.8405V74.2041H75.3577ZM72.7636 65.5606H66.6859V62.0888H72.7636H78.8405V65.5606H72.7636Z" fill="#83A89A"/>
<path d="M81.4353 31.2438H72.7643C71.3316 31.2438 70.1702 32.4015 70.1702 33.8297V42.4739C70.1702 43.902 71.3316 45.0598 72.7643 45.0598H81.4353C82.868 45.0598 84.0294 43.902 84.0294 42.4739V33.8297C84.0294 32.4015 82.868 31.2438 81.4353 31.2438ZM78.8412 39.888H75.3584V36.4155H78.8412V39.888Z" fill="#83A89A"/>
</svg>
